<svg width="1920" height="1080" viewBox="0 0 1920 1080" fill="none" xmlns="http://www.w3.org/2000/svg">
  <defs>
    <linearGradient id="bg" x1="960" y1="0" x2="960" y2="1080" gradientUnits="userSpaceOnUse">
      <stop offset="0" stop-color="#FFE8B0"/>
      <stop offset="0.32" stop-color="#FFB45B"/>
      <stop offset="0.62" stop-color="#C5772E"/>
      <stop offset="1" stop-color="#5A331A"/>
    </linearGradient>
    <linearGradient id="mist" x1="960" y1="312" x2="960" y2="770" gradientUnits="userSpaceOnUse">
      <stop stop-color="#FFF1C9" stop-opacity="0.58"/>
      <stop offset="1" stop-color="#FFF1C9" stop-opacity="0"/>
    </linearGradient>
    <linearGradient id="ridge1" x1="960" y1="386" x2="960" y2="1080" gradientUnits="userSpaceOnUse">
      <stop stop-color="#BC722D" stop-opacity="0.54"/>
      <stop offset="1" stop-color="#8B5725" stop-opacity="0.85"/>
    </linearGradient>
    <linearGradient id="ridge2" x1="960" y1="539" x2="960" y2="1080" gradientUnits="userSpaceOnUse">
      <stop stop-color="#A86129" stop-opacity="0.45"/>
      <stop offset="1" stop-color="#613918"/>
    </linearGradient>
    <linearGradient id="ridge3" x1="960" y1="672" x2="960" y2="1080" gradientUnits="userSpaceOnUse">
      <stop stop-color="#8E5425"/>
      <stop offset="1" stop-color="#4C2D17"/>
    </linearGradient>
  </defs>
  <rect width="1920" height="1080" fill="url(#bg)"/>
  <rect width="1920" height="1080" fill="url(#mist)"/>
  <path d="M0 502C137 494 201 482 304 433C409 382 468 314 580 307C723 298 747 430 834 438C924 446 936 318 1076 290C1191 267 1157 386 1259 395C1347 402 1365 314 1455 315C1568 316 1561 381 1681 406C1767 424 1836 375 1920 334V1080H0V502Z" fill="url(#ridge1)"/>
  <path d="M0 569C119 536 189 537 289 521C377 507 467 445 580 454C727 467 730 614 829 615C934 616 962 470 1084 437C1228 398 1231 530 1349 534C1487 539 1539 355 1695 356C1837 357 1864 299 1920 154V1080H0V569Z" fill="url(#ridge2)"/>
  <path d="M0 692C84 657 147 598 223 642C274 672 296 751 364 753C431 756 444 650 516 641C581 633 631 706 673 719C744 741 809 687 885 683C988 678 1062 768 1124 765C1177 763 1193 688 1260 635C1321 587 1385 558 1438 524C1498 485 1511 413 1574 399C1636 385 1688 409 1758 397C1839 382 1881 322 1920 269V1080H0V692Z" fill="url(#ridge3)"/>
  <path d="M0 798C79 786 142 747 195 760C274 779 285 903 382 924C514 954 607 819 706 811C803 804 861 890 947 905C1018 917 1062 868 1125 821C1204 762 1262 708 1320 686C1404 654 1491 709 1582 712C1702 717 1802 649 1920 607V1080H0V798Z" fill="#5A331A"/>
</svg>
